#!OML:ASF F:\VICON\USERDATA\INSTALL\rory3\rory3.ASF
:FULLY-SPECIFIED
:DEGREES
931
root 0.133941 16.9324 17.2794 -161.213 -33.3719 -176.652
lowerback -13.5032 1.81025 2.59563
upperback -6.89618 1.3325 2.22007
thorax 0.335052 0.328415 1.02816
lowerneck -12.6233 0.142813 -2.67357
upperneck 41.5183 -5.06977 3.81107
head 17.6153 -3.34571 0.88826
rclavicle -7.51841e-014 -3.18055e-015
rhumerus -73.9417 40.768 -120.522
rradius 50.2551
rwrist -43.8262
rhand 22.2619 -3.75543
rfingers 7.12502
rthumb 46.6361 -26.5803
lclavicle -7.51841e-014 -3.18055e-015
lhumerus -59.859 -18.1916 99.8812
lradius 41.0489
lwrist 12.4812
lhand 25.1964 19.2992
lfingers 7.12502
lthumb 49.3414 40.861
rfemur -29.2402 2.21689 36.0468
rtibia 26.7482
rfoot -41.4262 -31.6635
rtoes 41.4709
lfemur -25.6439 31.222 -23.4582
ltibia 56.1813
lfoot 36.7148 38.8482
ltoes 25.5583
932
root 0.13237 16.93 17.2787 -161.232 -33.3215 -176.617
lowerback -13.4798 1.76093 2.63197
upperback -6.86562 1.2648 2.25924
thorax 0.354464 0.295677 1.03908
lowerneck -12.7838 0.204309 -2.75208
upperneck 41.6207 -4.99012 3.86837
head 17.7175 -3.31874 0.939866
rclavicle -2.54941e-014 -4.13472e-014
rhumerus -74.056 40.987 -120.664
rradius 50.2658
rwrist -43.8683
rhand 22.1813 -3.72459
rfingers 7.12502
rthumb 46.5614 -26.5816
lclavicle -2.54941e-014 -4.13472e-014
lhumerus -59.7013 -18.0199 99.8021
lradius 40.7991
lwrist 12.4216
lhand 25.2254 19.0139
lfingers 7.12502
lthumb 49.368 40.5622
rfemur -29.1796 2.17396 36.0846
rtibia 26.6928
rfoot -41.471 -31.3808
rtoes 41.7462
lfemur -25.6299 31.2925 -23.4416
ltibia 56.1899
lfoot 36.6431 38.8261
ltoes 25.7675
933
root 0.132334 16.927 17.2803 -161.3 -33.3276 -176.518
lowerback -13.4092 1.7501 2.71917
upperback -6.88198 1.24366 2.25306
thorax 0.301642 0.282209 0.979415
lowerneck -12.8395 0.229577 -2.72251
upperneck 41.7093 -5.02004 3.93536
head 17.789 -3.32284 0.957141
rclavicle -2.67241e-014 -3.97569e-015
rhumerus -74.2597 41.0868 -120.998
rradius 50.2712
rwrist -43.9875
rhand 21.8548 -3.59405
rfingers 7.12502
rthumb 46.2589 -26.58
lclavicle -2.67241e-014 -3.97569e-015
lhumerus -59.7496 -18.0215 99.7405
lradius 40.7453
lwrist 12.5146
lhand 25.1899 18.9255
lfingers 7.12502
lthumb 49.3354 40.4903
rfemur -29.1381 2.1894 36.1707
rtibia 26.6675
rfoot -41.6797 -31.082
rtoes 42.1567
lfemur -25.6197 31.2983 -23.3486
ltibia 56.2096
lfoot 35.9131 39.4901
ltoes 27.0018
934
root 0.129143 16.9301 17.2813 -161.256 -33.3102 -176.595
lowerback -13.345 1.75813 2.71004
upperback -6.92267 1.26253 2.14619
thorax 0.227034 0.289746 0.874317
lowerneck -12.7411 0.243201 -2.45958
upperneck 41.7194 -5.0769 3.86947
head 17.7628 -3.31979 0.868425
rclavicle 1.16786e-014 -2.66371e-014
rhumerus -74.1987 40.936 -121.089
rradius 50.1611
rwrist -43.9285
rhand 21.7808 -3.53633
rfingers 7.12502
rthumb 46.1902 -26.5512
lclavicle 1.16786e-014 -2.66371e-014
lhumerus -60.0095 -18.2403 99.7712
lradius 41.0396
lwrist 12.7098
lhand 25.1569 19.1987
lfingers 7.12502
lthumb 49.3051 40.7788
rfemur -29.1492 2.08119 36.1117
rtibia 26.6604
rfoot -41.4486 -31.2315
rtoes 41.8021
lfemur -25.6059 31.2878 -23.4445
ltibia 56.1882
lfoot 35.9898 39.3338
ltoes 26.9952
935
root 0.128305 16.931 17.2823 -161.207 -33.3228 -176.638
lowerback -13.337 1.76328 2.69621
upperback -6.95662 1.27133 2.09474
thorax 0.18812 0.292308 0.829338
lowerneck -12.5732 0.225412 -2.29307
upperneck 41.6571 -5.12623 3.78723
head 17.6763 -3.32928 0.793547
rclavicle -4.19964e-014 -1.94809e-014
rhumerus -73.9464 40.6367 -120.849
rradius 50.0262
rwrist -43.6757
rhand 21.8143 -3.61759
rfingers 7.12502
rthumb 46.2213 -26.6194
lclavicle -4.19964e-014 -1.94809e-014
lhumerus -60.1841 -18.3622 99.8229
lradius 41.245
lwrist 12.7887
lhand 25.1489 19.256
lfingers 7.12502
lthumb 49.2979 40.8398
rfemur -29.2002 2.03984 36.0845
rtibia 26.6866
rfoot -41.3289 -31.3905
rtoes 41.6106
lfemur -25.6425 31.2782 -23.507
ltibia 56.1832
lfoot 34.7786 39.3102
ltoes 31.4952
936
root 0.127787 16.9314 17.2819 -161.205 -33.3169 -176.588
lowerback -13.3691 1.75154 2.72375
upperback -6.89728 1.25298 2.14315
thorax 0.266921 0.286132 0.862742
lowerneck -12.6737 0.2045 -2.43354
upperneck 41.6459 -5.10492 3.80611
head 17.6995 -3.33354 0.831376
rclavicle 1.66296e-014 -1.31198e-014
rhumerus -73.7194 40.656 -120.575
rradius 49.9862
rwrist -43.4701
rhand 22.1155 -3.62459
rfingers 7.12502
rthumb 46.5005 -26.5078
lclavicle 1.66296e-014 -1.31198e-014
lhumerus -60.0222 -18.2829 99.7907
lradius 41.1734
lwrist 12.7296
lhand 25.134 19.0147
lfingers 7.12502
lthumb 49.2841 40.6053
rfemur -29.2581 2.13278 36.0951
rtibia 26.7271
rfoot -41.3858 -31.4613
rtoes 41.5938
lfemur -25.6614 31.277 -23.4773
ltibia 56.1738
lfoot 35.2088 39.1656
ltoes 31.9735
937
root 0.128217 16.9312 17.2811 -161.181 -33.2838 -176.623
lowerback -13.3027 1.75501 2.70579
upperback -6.8988 1.26562 2.1243
thorax 0.229953 0.293391 0.853625
lowerneck -12.6024 0.157664 -2.50645
upperneck 41.5651 -5.13852 3.80461
head 17.6368 -3.35739 0.839921
rclavicle -2.78112e-014 2.94201e-014
rhumerus -73.7436 40.6861 -120.608
rradius 50.0116
rwrist -43.4438
rhand 22.093 -3.58135
rfingers 7.12502
rthumb 46.4796 -26.4735
lclavicle -2.78112e-014 2.94201e-014
lhumerus -59.897 -18.2991 99.7864
lradius 40.9606
lwrist 12.6839
lhand 25.1813 18.821
lfingers 7.12502
lthumb 49.3275 40.3898
rfemur -29.288 2.21753 36.0451
rtibia 26.7631
rfoot -41.4407 -31.5344
rtoes 41.5541
lfemur -25.6514 31.2692 -23.5093
ltibia 56.1659
lfoot 36.4207 38.7941
ltoes 27.0973
938
root 0.127929 16.9287 17.2812 -161.144 -33.2405 -176.655
lowerback -13.2242 1.78766 2.72254
upperback -6.96982 1.31066 2.02903
thorax 0.116393 0.311008 0.749157
lowerneck -12.328 0.125632 -2.35848
upperneck 41.444 -5.23652 3.80081
head 17.4956 -3.38265 0.797704
rclavicle -5.06342e-014 2.22639e-014
rhumerus -73.838 40.5353 -120.8
rradius 50.0291
rwrist -43.5079
rhand 21.9522 -3.52515
rfingers 7.12502
rthumb 46.3492 -26.4729
lclavicle -5.06342e-014 2.22639e-014
lhumerus -60.135 -18.5115 99.8589
lradius 41.0853
lwrist 12.7757
lhand 25.2304 18.9658
lfingers 7.12502
lthumb 49.3726 40.5118
rfemur -29.2894 2.07284 36.062
rtibia 26.7635
rfoot -41.3318 -31.3217
rtoes 41.6087
lfemur -25.6794 31.2789 -23.5851
ltibia 56.1644
lfoot 35.0085 39.2495
ltoes 32.1049
939
root 0.127043 16.9251 17.2809 -161.086 -33.142 -176.746
lowerback -13.1226 1.85609 2.68049
upperback -7.06925 1.41116 1.88106
thorax -0.0388267 0.355943 0.629352
lowerneck -12.1642 0.139318 -2.20553
upperneck 41.5527 -5.4023 3.9503
head 17.5293 -3.42605 0.806328
rclavicle -2.98177e-016 2.74323e-014
rhumerus -73.8461 40.2301 -120.91
rradius 50.0002
rwrist -43.5101
rhand 21.9707 -3.58398
rfingers 7.12502
rthumb 46.3663 -26.5244
lclavicle -2.98177e-016 2.74323e-014
lhumerus -60.5534 -18.8073 99.9479
lradius 41.3854
lwrist 12.9049
lhand 25.2146 19.191
lfingers 7.12502
lthumb 49.3582 40.7443
rfemur -29.2854 2.12548 35.9606
rtibia 26.7726
rfoot -41.4629 -31.0806
rtoes 41.8659
lfemur -25.6621 31.3126 -23.7215
ltibia 56.1416
lfoot 33.4971 39.8994
ltoes 33.6522
940
root 0.126192 16.9225 17.2783 -161.094 -33.0788 -176.668
lowerback -13.1223 1.90148 2.70847
upperback -7.1022 1.46505 1.86009
thorax -0.0719105 0.379407 0.598613
lowerneck -12.1233 0.155946 -2.10631
upperneck 41.5774 -5.44815 4.00261
head 17.5359 -3.42695 0.803561
rclavicle 1.30825e-014 1.51076e-014
rhumerus -73.8476 40.0845 -120.892
rradius 50.0616
rwrist -43.419
rhand 21.8198 -3.52746
rfingers 7.12502
rthumb 46.2264 -26.5271
lclavicle 1.30825e-014 1.51076e-014
lhumerus -60.746 -18.9847 100.106
lradius 41.5472
lwrist 13.0735
lhand 25.019 19.3896
lfingers 7.12502
lthumb 49.1786 41.0332
rfemur -29.2771 2.293 35.985
rtibia 26.7488
rfoot -41.6778 -30.9783
rtoes 42.0125
lfemur -25.7058 31.3813 -23.7096
ltibia 56.152
lfoot 34.019 39.7316
ltoes 30.7605
941
root 0.127054 16.9192 17.2723 -161.064 -33.0076 -176.618
lowerback -13.2233 1.94466 2.7021
upperback -7.04741 1.52004 1.86644
thorax 0.039769 0.409842 0.618425
lowerneck -12.2588 0.142124 -2.09491
upperneck 41.5872 -5.43564 3.96066
head 17.5742 -3.41639 0.783826
rclavicle -2.82461e-014 -4.05521e-014
rhumerus -73.7244 40.0888 -120.769
rradius 50.1067
rwrist -43.3944
rhand 21.4901 -3.46061
rfingers 7.12502
rthumb 45.9206 -26.5882
lclavicle -2.82461e-014 -4.05521e-014
lhumerus -60.5572 -19.0416 100.129
lradius 41.4147
lwrist 13.0068
lhand 25.1883 19.5777
lfingers 7.12502
lthumb 49.334 41.1432
rfemur -29.3118 2.422 36.0084
rtibia 26.7531
rfoot -41.7058 -31.0363
rtoes 42.1872
lfemur -25.7733 31.4632 -23.7211
ltibia 56.1695
lfoot 37.0101 38.4023
ltoes 23.9498
